<svg xmlns="http://www.w3.org/2000/svg" viewBox="0 -256 2048 2048"><path d="M1867.798 784.647l-4.732 0.768c-148.662 101.128-287.174 215.508-417.668 345.256l-144.208 150.646c-58.426 64.76-115.192 136.506-169.208 204.938l-65.632 93.002c-8.046 4.9-18.074 13.020-26.96 15.396-19.354 8.39-40.228-1.756-56.020-13.736l-118.762-154.676c-190.522-235.958-416.052-456.294-662.104-625.182-19.464-15.2-48.376-30.032-54.396-55.084-6.458-22.528 5.274-41.12 19.266-55.128 197.032-135.716 385.412-296.836 553.084-480.578 29.762-31.268 53.892-62.362 83.010-91.722 49.042-65.258 106.65-131.036 151.734-201.048 14.138-14.774 16.56-39.066 38.67-46.27 17.306-5.99 38.67-10.058 55.186 0l16.414 16.486c203.872 288.804 462.424 548.184 751.308 757.6 28.92 25.82 84.15 35.43 84.94 83.354-2.062 22.112-14.936 43.894-33.924 55.976zM1670.436 707.387c-32.9-82.242-99.744-147.8-158.194-219.618-126.456-136.112-259.848-267.82-409.176-372.882-30.2-21.366-70.948-41.092-107.146-24.138-109.92 57.534-202.606 151.786-298.81 237.664-111.58 103.454-223.546 223.92-308.114 349.93-12.574 17.678-16.114 39.49-15.748 62.808 10.87 43.498 40.674 79.294 68.872 115.96 99.92 127.35 222.318 248.138 345.922 358.474 2.846 2.824 8.118 8.836 12.602 11.71 53.072 45.904 105.808 86.528 161.44 126.456 57.958 45.108 130.89 7.65 179.654-33.836 51.076-39.044 104.28-83.28 150.966-128.49l8.492-4.878c129.31-119.968 249.402-253.308 348.050-394.27 15.996-24.532 30.128-52.342 21.19-84.89zM1614.512 778.687c-127.67 184.73-295.226 348.32-472.774 491.242-45.926 32.256-99.102 88.708-158.368 48.326-184.042-127.174-361.172-299.652-503.794-475.546-29.038-42.73-79.792-83.426-56.766-140.17 16.486-41.888 53.526-72.162 77.238-109.1 139.872-168.024 304.874-324.682 477.302-450.692 75.732-48.398 129.704 29.732 188.496 65.506 120.466 95.166 231.944 210.68 337.51 323.050v2.786c42.336 51.17 86.996 101.552 120.094 156.76 14.432 26.982 7.16 63.992-8.938 87.838zM1004.734 1150.749l16.070 51.566h2.078c33.024-94.574 67.314-188.92 102.664-282.324l-70.876-1.206-1.588-8.566 10.526-253.162v-4.11c-26.266-4.476-58.448-3.19-84.224-0.666l-2.034 2.742 11.784 261.010v1.91c-19.808 2.056-44.786 0-64.958 2.056l80.56 230.752zM962.896 309.073c6.86 92.914 8.046 178.696 12.852 271.382 32.63-3.218 60.826-2.034 90.61-0.864l2.056-12.332 11.688-259.028c-39.124-5.69-80.516-2.502-117.204 0.842zM1259.776 631.977c-169.186-52.706-381.922-50.3-542.172 20.304-28.994 13.912-65.632 35.774-75.308 69.61-7.328 61.966 59.144 96.204 104.324 118.858 26.588 11.586 53.526 24.488 83.010 26.12 27.312-20.202 55.954-36.264 84.122-54.418-54.814-14.556-120.444-27.034-145.818-86.944 4.432-45.524 56.020-59.984 91.772-71.248 129.426-34.334 269.056-29.93 393.158 15.228 23.392 13.736 60.43 30.23 57.212 64.066-4.11 36.198-45.546 52.312-74.488 63.576-17.796-2.422-34.706-6.436-51.2-11.71-8.814 25.030-16.436 50.432-27.012 74.518 54.886-14.512 109.598-29.338 166.262-39.49v-1.142c-11.616-1.214-24.51-5.2-35.722-9.632v-2.004c32.16-16.194 76.918-42.81 77.364-85.088-7.658-51.17-63.736-74.51-105.502-90.602z" /></svg>